name rise44.9368peak50.754fall52.0217.mot
datacolumns 19
datarows 21
range 20.78992300000000 20.82325800000000
endheader
time	ground_force1_vx	ground_force1_vy	ground_force1_vz	ground_force1_px	ground_force1_py	ground_force1_pz	ground_force2_vx	ground_force2_vy	ground_force2_vz	ground_force2_px	ground_force2_py	ground_force2_pz	ground_torque1_x	ground_torque1_y	ground_torque1_z	ground_torque2_x	ground_torque2_y	ground_torque2_z	
20.78992300000000	5.75177300000000	711.01173500000004	51.28889500000000	0.27757000000000	0.00000000000000	0.14969300000000	0.00000000000000	0.00000000000000	0.00000000000000	0.00000000000000	0.00000000000000	0.00000000000000	0.00000000000000	25.66652000000000	0.00000000000000	0.00000000000000	0.00000000000000	0.00000000000000	
20.79159400000000	5.43428900000000	711.38851699999998	51.25379500000000	0.27703600000000	0.00000000000000	0.14960400000000	0.00000000000000	0.00000000000000	0.00000000000000	0.00000000000000	0.00000000000000	0.00000000000000	0.00000000000000	25.68550000000000	0.00000000000000	0.00000000000000	0.00000000000000	0.00000000000000	
20.79326000000000	5.11173300000000	711.77460699999995	51.22300700000000	0.27649400000000	0.00000000000000	0.14951600000000	0.00000000000000	0.00000000000000	0.00000000000000	0.00000000000000	0.00000000000000	0.00000000000000	0.00000000000000	25.70877000000000	0.00000000000000	0.00000000000000	0.00000000000000	0.00000000000000	
20.79492700000000	4.78376200000000	712.16965300000004	51.19646100000000	0.27594400000000	0.00000000000000	0.14942900000000	0.00000000000000	0.00000000000000	0.00000000000000	0.00000000000000	0.00000000000000	0.00000000000000	0.00000000000000	25.73632400000000	0.00000000000000	0.00000000000000	0.00000000000000	0.00000000000000	
20.79659200000000	4.45005000000000	712.57336799999996	51.17408500000000	0.27538300000000	0.00000000000000	0.14934200000000	0.00000000000000	0.00000000000000	0.00000000000000	0.00000000000000	0.00000000000000	0.00000000000000	0.00000000000000	25.76815300000000	0.00000000000000	0.00000000000000	0.00000000000000	0.00000000000000	
20.79826000000000	4.11028800000000	712.98554100000001	51.15580900000000	0.27481000000000	0.00000000000000	0.14925600000000	0.00000000000000	0.00000000000000	0.00000000000000	0.00000000000000	0.00000000000000	0.00000000000000	0.00000000000000	25.80424400000000	0.00000000000000	0.00000000000000	0.00000000000000	0.00000000000000	
20.79992400000000	3.76418500000000	713.40602799999999	51.14156100000000	0.27422600000000	0.00000000000000	0.14917100000000	0.00000000000000	0.00000000000000	0.00000000000000	0.00000000000000	0.00000000000000	0.00000000000000	0.00000000000000	25.84458100000000	0.00000000000000	0.00000000000000	0.00000000000000	0.00000000000000	
20.80159200000000	3.41147000000000	713.83475999999996	51.13127100000000	0.27362800000000	0.00000000000000	0.14908800000000	0.00000000000000	0.00000000000000	0.00000000000000	0.00000000000000	0.00000000000000	0.00000000000000	0.00000000000000	25.88914700000000	0.00000000000000	0.00000000000000	0.00000000000000	0.00000000000000	
20.80326200000000	3.05188900000000	714.27173400000004	51.12486900000000	0.27301600000000	0.00000000000000	0.14900500000000	0.00000000000000	0.00000000000000	0.00000000000000	0.00000000000000	0.00000000000000	0.00000000000000	0.00000000000000	25.93791700000000	0.00000000000000	0.00000000000000	0.00000000000000	0.00000000000000	
20.80492400000000	2.68521000000000	714.71701700000006	51.12228500000000	0.27238800000000	0.00000000000000	0.14892400000000	0.00000000000000	0.00000000000000	0.00000000000000	0.00000000000000	0.00000000000000	0.00000000000000	0.00000000000000	25.99086600000000	0.00000000000000	0.00000000000000	0.00000000000000	0.00000000000000	
20.80659000000000	2.31121900000000	715.17074400000001	51.12345400000000	0.27174500000000	0.00000000000000	0.14884400000000	0.00000000000000	0.00000000000000	0.00000000000000	0.00000000000000	0.00000000000000	0.00000000000000	0.00000000000000	26.04796400000000	0.00000000000000	0.00000000000000	0.00000000000000	0.00000000000000	
20.80825800000000	1.92972300000000	715.63311499999998	51.12830900000000	0.27108500000000	0.00000000000000	0.14876500000000	0.00000000000000	0.00000000000000	0.00000000000000	0.00000000000000	0.00000000000000	0.00000000000000	0.00000000000000	26.10918000000000	0.00000000000000	0.00000000000000	0.00000000000000	0.00000000000000	
20.80992300000000	1.54054900000000	716.10439299999996	51.13678600000000	0.27040700000000	0.00000000000000	0.14868700000000	0.00000000000000	0.00000000000000	0.00000000000000	0.00000000000000	0.00000000000000	0.00000000000000	0.00000000000000	26.17447700000000	0.00000000000000	0.00000000000000	0.00000000000000	0.00000000000000	
20.81159100000000	1.14354500000000	716.58490200000006	51.14882600000000	0.26971200000000	0.00000000000000	0.14861100000000	0.00000000000000	0.00000000000000	0.00000000000000	0.00000000000000	0.00000000000000	0.00000000000000	0.00000000000000	26.24381600000000	0.00000000000000	0.00000000000000	0.00000000000000	0.00000000000000	
20.81326000000000	0.73857800000000	717.07502599999998	51.16437000000000	0.26899700000000	0.00000000000000	0.14853700000000	0.00000000000000	0.00000000000000	0.00000000000000	0.00000000000000	0.00000000000000	0.00000000000000	0.00000000000000	26.31715500000000	0.00000000000000	0.00000000000000	0.00000000000000	0.00000000000000	
20.81492400000000	0.32553800000000	717.57520399999999	51.18336300000000	0.26826300000000	0.00000000000000	0.14846400000000	0.00000000000000	0.00000000000000	0.00000000000000	0.00000000000000	0.00000000000000	0.00000000000000	0.00000000000000	26.39444900000000	0.00000000000000	0.00000000000000	0.00000000000000	0.00000000000000	
20.81659300000000	-0.09566400000000	718.08592699999997	51.20575300000000	0.26751000000000	0.00000000000000	0.14839200000000	0.00000000000000	0.00000000000000	0.00000000000000	0.00000000000000	0.00000000000000	0.00000000000000	0.00000000000000	26.47565000000000	0.00000000000000	0.00000000000000	0.00000000000000	0.00000000000000	
20.81825500000000	-0.52509900000000	718.60773700000004	51.23149200000000	0.26673600000000	0.00000000000000	0.14832200000000	0.00000000000000	0.00000000000000	0.00000000000000	0.00000000000000	0.00000000000000	0.00000000000000	0.00000000000000	26.56070600000000	0.00000000000000	0.00000000000000	0.00000000000000	0.00000000000000	
20.81992100000000	-0.96281500000000	719.14121799999998	51.26053800000000	0.26594200000000	0.00000000000000	0.14825400000000	0.00000000000000	0.00000000000000	0.00000000000000	0.00000000000000	0.00000000000000	0.00000000000000	0.00000000000000	26.64956300000000	0.00000000000000	0.00000000000000	0.00000000000000	0.00000000000000	
20.82159500000000	-1.40883900000000	719.68700100000001	51.29284900000000	0.26512700000000	0.00000000000000	0.14818800000000	0.00000000000000	0.00000000000000	0.00000000000000	0.00000000000000	0.00000000000000	0.00000000000000	0.00000000000000	26.74216500000000	0.00000000000000	0.00000000000000	0.00000000000000	0.00000000000000	
20.82325800000000	-1.86317800000000	720.24575000000004	51.32839100000000	0.26429100000000	0.00000000000000	0.14812300000000	0.00000000000000	0.00000000000000	0.00000000000000	0.00000000000000	0.00000000000000	0.00000000000000	0.00000000000000	26.83845100000000	0.00000000000000	0.00000000000000	0.00000000000000	0.00000000000000	
